name Walk1.mot
datacolumns 19
datarows 20
range 3.01500000 3.03400000
endheader

                time	   L_ground_force_vx	   L_ground_force_vy	   L_ground_force_vz	   L_ground_force_px	   L_ground_force_py	   L_ground_force_pz	   R_ground_force_vx	   R_ground_force_vy	   R_ground_force_vz	   R_ground_force_px	   R_ground_force_py	   R_ground_force_pz	   L_ground_torque_x	   L_ground_torque_y	   L_ground_torque_z	   R_ground_torque_x	   R_ground_torque_y	   R_ground_torque_z	
          3.01500000	          0.00000000	          0.00000000	          0.00000000	          0.00000000	          0.00000000	          0.00000000	          0.00000000	          0.00000000	          0.00000000	          0.00000000	          0.00000000	          0.00000000	          0.00000000	          0.00000000	          0.00000000	          0.00000000	          0.00000000	          0.00000000	
          3.01600000	          0.00000000	          0.00000000	          0.00000000	          0.00000000	          0.00000000	          0.00000000	          0.00000000	          0.00000000	          0.00000000	          0.00000000	          0.00000000	          0.00000000	          0.00000000	          0.00000000	          0.00000000	          0.00000000	          0.00000000	          0.00000000	
          3.01700000	          0.00000000	          0.00000000	          0.00000000	          0.00000000	          0.00000000	          0.00000000	          0.00000000	          0.00000000	          0.00000000	          0.00000000	          0.00000000	          0.00000000	          0.00000000	          0.00000000	          0.00000000	          0.00000000	          0.00000000	          0.00000000	
          3.01800000	          0.00000000	          0.00000000	          0.00000000	          0.00000000	          0.00000000	          0.00000000	          0.00000000	          0.00000000	          0.00000000	          0.00000000	          0.00000000	          0.00000000	          0.00000000	          0.00000000	          0.00000000	          0.00000000	          0.00000000	          0.00000000	
          3.01900000	         -2.18719221	          9.52341169	         -3.22718111	         -0.37977474	          0.00000000	         -0.07312707	          0.00000000	          0.00000000	          0.00000000	          0.00000000	          0.00000000	          0.00000000	          0.00000000	          0.01809219	          0.00000000	          0.00000000	          0.00000000	          0.00000000	
          3.02000000	         -3.38646425	         17.93080206	         -5.36240154	         -0.38061648	          0.00000000	         -0.07771380	          0.00000000	          0.00000000	          0.00000000	          0.00000000	          0.00000000	          0.00000000	          0.00000000	          0.00990531	          0.00000000	          0.00000000	          0.00000000	          0.00000000	
          3.02100000	         -4.49938605	         28.63405104	         -7.68232656	         -0.38094321	          0.00000000	         -0.08070579	          0.00000000	          0.00000000	          0.00000000	          0.00000000	          0.00000000	          0.00000000	          0.00000000	         -0.00473635	          0.00000000	          0.00000000	          0.00000000	          0.00000000	
          3.02200000	         -5.31308250	         41.22856037	         -9.94948561	         -0.38087838	          0.00000000	         -0.08279229	          0.00000000	          0.00000000	          0.00000000	          0.00000000	          0.00000000	          0.00000000	          0.00000000	         -0.02116459	          0.00000000	          0.00000000	          0.00000000	          0.00000000	
          3.02300000	         -5.74446120	         55.52761893	        -12.09323045	         -0.38066349	          0.00000000	         -0.08440012	          0.00000000	          0.00000000	          0.00000000	          0.00000000	          0.00000000	          0.00000000	          0.00000000	         -0.03301494	          0.00000000	          0.00000000	          0.00000000	          0.00000000	
          3.02400000	         -5.76688052	         71.32764979	        -14.10724848	         -0.38054787	          0.00000000	         -0.08576422	          0.00000000	          0.00000000	          0.00000000	          0.00000000	          0.00000000	          0.00000000	          0.00000000	         -0.03752477	          0.00000000	          0.00000000	          0.00000000	          0.00000000	
          3.02500000	         -5.33687254	         88.21633418	        -15.95595101	         -0.38062404	          0.00000000	         -0.08693092	          0.00000000	          0.00000000	          0.00000000	          0.00000000	          0.00000000	          0.00000000	          0.00000000	         -0.03747626	          0.00000000	          0.00000000	          0.00000000	          0.00000000	
          3.02600000	         -4.39583558	        105.57538954	        -17.56552669	         -0.38085292	          0.00000000	         -0.08791279	          0.00000000	          0.00000000	          0.00000000	          0.00000000	          0.00000000	          0.00000000	          0.00000000	         -0.03780104	          0.00000000	          0.00000000	          0.00000000	          0.00000000	
          3.02700000	         -2.91159804	        122.69448156	        -18.86052823	         -0.38115013	          0.00000000	         -0.08868976	          0.00000000	          0.00000000	          0.00000000	          0.00000000	          0.00000000	          0.00000000	          0.00000000	         -0.04117638	          0.00000000	          0.00000000	          0.00000000	          0.00000000	
          3.02800000	         -0.91302812	        138.90964443	        -19.80779229	         -0.38141770	          0.00000000	         -0.08917945	          0.00000000	          0.00000000	          0.00000000	          0.00000000	          0.00000000	          0.00000000	          0.00000000	         -0.04755743	          0.00000000	          0.00000000	          0.00000000	          0.00000000	
          3.02900000	          1.50235651	        153.69191455	        -20.43406840	         -0.38157398	          0.00000000	         -0.08935751	          0.00000000	          0.00000000	          0.00000000	          0.00000000	          0.00000000	          0.00000000	          0.00000000	         -0.05488393	          0.00000000	          0.00000000	          0.00000000	          0.00000000	
          3.03000000	          4.18764769	        166.69262802	        -20.81626882	         -0.38159493	          0.00000000	         -0.08932906	          0.00000000	          0.00000000	          0.00000000	          0.00000000	          0.00000000	          0.00000000	          0.00000000	         -0.05848741	          0.00000000	          0.00000000	          0.00000000	          0.00000000	
          3.03100000	          6.97780010	        177.76408860	        -21.05931936	         -0.38149055	          0.00000000	         -0.08924479	          0.00000000	          0.00000000	          0.00000000	          0.00000000	          0.00000000	          0.00000000	          0.00000000	         -0.05307842	          0.00000000	          0.00000000	          0.00000000	          0.00000000	
          3.03200000	          9.71296384	        186.92289920	        -21.26166095	         -0.38126342	          0.00000000	         -0.08919558	          0.00000000	          0.00000000	          0.00000000	          0.00000000	          0.00000000	          0.00000000	          0.00000000	         -0.03691702	          0.00000000	          0.00000000	          0.00000000	          0.00000000	
          3.03300000	         12.25102538	        194.27652423	        -21.48657793	         -0.38094174	          0.00000000	         -0.08917271	          0.00000000	          0.00000000	          0.00000000	          0.00000000	          0.00000000	          0.00000000	          0.00000000	         -0.01304193	          0.00000000	          0.00000000	          0.00000000	          0.00000000	
          3.03400000	         14.48238898	        199.97763383	        -21.76398931	         -0.38060889	          0.00000000	         -0.08912219	          0.00000000	          0.00000000	          0.00000000	          0.00000000	          0.00000000	          0.00000000	          0.00000000	          0.01345693	          0.00000000	          0.00000000	          0.00000000	          0.00000000	
